<svg xmlns="http://www.w3.org/2000/svg" viewBox="0 0 1000 250" role="img" aria-labelledby="title desc">
  <title id="title">LODEX Software dark-background logo</title>
  <desc id="desc">White LODEX wordmark with a bright blue split X and SOFTWARE beneath.</desc>
  <defs>
    <linearGradient id="xAccent" x1="0" y1="0" x2="1" y2="1">
      <stop offset="0" stop-color="#0B4DFF"/>
      <stop offset="1" stop-color="#38A8FF"/>
    </linearGradient>
  </defs>
  <g fill="#FFFFFF">
    <path d="M48 42h55v118h118v48H48z"/>
    <path fill-rule="evenodd" d="M268 42h126c36 0 63 27 63 63v40c0 36-27 63-63 63H268c-36 0-63-27-63-63v-40c0-36 27-63 63-63zm17 47c-16 0-27 11-27 27v18c0 16 11 27 27 27h92c16 0 27-11 27-27v-18c0-16-11-27-27-27z"/>
    <path d="M484 42h124c48 0 84 34 84 83s-36 83-84 83H484zm55 47v72h61c23 0 38-14 38-36s-15-36-38-36z"/>
    <path d="M711 42h171v47H766v17h102v39H766v16h116v47H711z"/>
    <path d="M886 42h64l25 38-32 48-57-86zm57 166h-64l66-99 32 48-34 51z"/>
  </g>
  <g fill="url(#xAccent)">
    <path d="M950 42h64l-66 99-32-48 34-51z" transform="translate(-14 0)"/>
    <path d="M936 109l57 99h-64l-25-38z"/>
  </g>
  <text x="496" y="244" text-anchor="middle" font-family="Arial, Helvetica, sans-serif" font-size="30" font-weight="700" letter-spacing="18" fill="#FFFFFF">SOFTWARE</text>
</svg>